<svg xmlns="http://www.w3.org/2000/svg" version="1.1" xmlns:xlink="http://www.w3.org/1999/xlink" xmlns:svgjs="http://svgjs.dev/svgjs" width="2000" height="1252" viewBox="0 0 2000 1252"><g transform="matrix(1,0,0,1,-1.2121212121212466,-2.019354838709546)"><svg viewBox="0 0 396 248" data-background-color="#ffffff" preserveAspectRatio="xMidYMid meet" height="1252" width="2000" xmlns="http://www.w3.org/2000/svg" xmlns:xlink="http://www.w3.org/1999/xlink"><g id="tight-bounds" transform="matrix(1,0,0,1,0.2400000000000091,0.4000000000000057)"><svg viewBox="0 0 395.52 247.2" height="247.2" width="395.52"><g><svg></svg></g><g><svg viewBox="0 0 395.52 247.2" height="247.2" width="395.52"><g transform="matrix(1,0,0,1,75.54432000000001,55.95408444818872)"><svg viewBox="0 0 244.43135999999996 135.29183110362254" height="135.29183110362254" width="244.43135999999996"><g><svg viewBox="0 0 244.43135999999996 135.29183110362254" height="135.29183110362254" width="244.43135999999996"><g><svg viewBox="0 0 244.43135999999996 135.29183110362254" height="135.29183110362254" width="244.43135999999996"><g><svg viewBox="0 0 244.43135999999996 135.29183110362254" height="135.29183110362254" width="244.43135999999996"><g id="textblocktransform"><svg viewBox="0 0 244.43135999999996 135.29183110362254" height="135.29183110362254" width="244.43135999999996" id="textblock"><g><svg viewBox="0 0 244.43135999999996 135.29183110362254" height="135.29183110362254" width="244.43135999999996"><g transform="matrix(1,0,0,1,0,0)"><svg width="244.43135999999996" viewBox="2.85 -32.05 59.35 32.849999999999994" height="135.29183110362254" data-palette-color="#ffffff"><path d="M25.6 0.8Q24.35 0.8 22.93-0.48 21.5-1.75 20.3-3.95L20.3-3.95 14.95-13.65 10.8-13.65 10.65-6.2Q10.65-4.3 10.9-3.48 11.15-2.65 11.85-2.38 12.55-2.1 14.25-2.1L14.25-2.1 14.35-1.9 13.9 0.2Q13.3 0.15 11.5 0.1 9.7 0.05 7.75 0.05L7.75 0.05Q6 0.05 4.65 0.1 3.3 0.15 2.85 0.2L2.85 0.2 3.3-2.05Q4.9-2.25 5.7-2.6 6.5-2.95 6.8-3.73 7.1-4.5 7.1-6L7.1-6 7.15-27Q7.15-28.6 6.78-29.15 6.4-29.7 5.3-29.7L5.3-29.7Q4.8-29.7 4.3-29.65 3.8-29.6 3.6-29.6L3.6-29.6 3.5-29.8 3.85-32Q4.45-31.95 6.1-31.9 7.75-31.85 9.4-31.85L9.4-31.85Q11.1-31.85 12.98-31.93 14.85-32 15.55-32.05L15.55-32.05Q20.2-32.05 22.9-29.95 25.6-27.85 25.6-24.2L25.6-24.2Q25.6-21.2 23.68-18.7 21.75-16.2 18.25-14.6L18.25-14.6 23.75-5.9Q25.2-3.5 26.58-2.58 27.95-1.65 29.95-1.65L29.95-1.65 30.15-1.45 29.85 0.25 25.6 0.8ZM16.05-15.95Q16.05-15.8 17.55-16.6 19.05-17.4 20.25-19.05 21.45-20.7 21.45-23.3L21.45-23.3Q21.45-29.9 12.3-29.9L12.3-29.9Q11.8-29.9 11.63-29.68 11.45-29.45 11.4-28.75L11.4-28.75Q10.95-21.1 10.9-16.45L10.9-16.45 16.05-15.95ZM33.7 0.4L34.05-1.9Q36.25-2.3 36.95-3.08 37.65-3.85 37.65-6L37.65-6 37.7-27Q37.7-28.6 37.32-29.15 36.95-29.7 35.85-29.7L35.85-29.7Q35.35-29.7 34.85-29.65 34.35-29.6 34.15-29.6L34.15-29.6 34.05-29.8 34.4-32Q35-31.95 36.65-31.9 38.3-31.85 39.95-31.85L39.95-31.85Q41.5-31.85 43.47-31.93 45.45-32 46.25-32.05L46.25-32.05Q51.45-32.05 54.2-29.75 56.95-27.45 56.95-23.15L56.95-23.15Q56.95-20.35 55.32-17.82 53.7-15.3 51.05-13.75 48.4-12.2 45.5-12.2L45.5-12.2 41.3-12.2 41.2-7.3Q41.2-4.9 41.35-3.88 41.5-2.85 41.92-2.53 42.35-2.2 43.4-2.2L43.4-2.2Q44.25-2.2 45.02-2.25 45.8-2.3 46.1-2.35L46.1-2.35 46.2-2.15 45.75 0.15Q45.25 0.1 43.92 0.05 42.6 0 41.15 0L41.15 0Q39.15 0 36.47 0.15 33.8 0.3 33.7 0.4L33.7 0.4ZM46.7-14.4Q49.7-14.9 51.22-16.85 52.75-18.8 52.75-22.2L52.75-22.2Q52.75-26.05 50.47-27.83 48.2-29.6 43.35-29.6L43.35-29.6Q42.45-29.6 42.25-29.5 42.05-29.4 42-28.9L42-28.9Q41.55-22.55 41.4-15.15L41.4-15.15 46.7-14.4ZM59.05 0.6Q57.7 0.6 56.97-0.23 56.24-1.05 56.24-2.25L56.24-2.25Q56.24-3.55 57.09-4.45 57.95-5.35 59.34-5.35L59.34-5.35Q60.7-5.35 61.45-4.53 62.2-3.7 62.2-2.5L62.2-2.5Q62.2-1.2 61.32-0.3 60.45 0.6 59.05 0.6L59.05 0.6Z" opacity="1" transform="matrix(1,0,0,1,0,0)" fill="#ffffff" class="wordmark-text-0" data-fill-palette-color="primary" id="text-0"></path></svg></g></svg></g></svg></g></svg></g></svg></g></svg></g></svg></g><g><path d="M245.816 0c68.262 0 123.6 55.338 123.6 123.6 0 68.262-55.338 123.6-123.6 123.6-36.016 0-68.434-15.405-91.025-39.985h8.474c21.22 20.951 50.375 33.884 82.551 33.885 64.893 0 117.5-52.606 117.499-117.5 0-64.893-52.606-117.5-117.499-117.5-32.176 0-61.331 12.933-82.551 33.885h-8.474c22.591-24.58 55.009-39.985 91.025-39.985z" fill="#ffffff" stroke="transparent" data-fill-palette-color="tertiary"></path></g></svg></g><defs></defs></svg><rect width="395.52" height="247.2" fill="none" stroke="none" visibility="hidden"></rect></g></svg></g></svg>